<?xml version="1.0" encoding="utf-8"?>
<!-- Generator: Adobe Illustrator 22.0.1, SVG Export Plug-In . SVG Version: 6.00 Build 0)  -->
<svg version="1.1" id="Capa_1" xmlns="http://www.w3.org/2000/svg" xmlns:xlink="http://www.w3.org/1999/xlink" x="0px" y="0px"
	 viewBox="0 0 83.9 84.8" style="enable-background:new 0 0 83.9 84.8;" xml:space="preserve">
<style type="text/css">
	.st0{fill:#6F6F71;}
	.st1{fill:#BBDBEA;}
	.st2{font-family:'Avenir-Roman';}
	.st3{font-size:5.8166px;}
</style>
<g>
	<path class="st0" d="M19.8,64.9v6.7h-2.7v-6.9c0-1.3-0.4-2.2-2.5-2.2c-0.8,0-1.6,0.1-2.3,0.3c0,0,0.5,0.5,0.5,2.1v6.7h-2.7v-6.9
		c0-1.2-0.4-2-2.5-2c-0.7,0-1.3,0.1-1.8,0.2v8.8H3.2v-10c0.1,0,2.2-1.2,4.9-1.2c1.2,0,2.2,0.3,3,0.8c0.9-0.4,2.3-0.8,4-0.8
		C18.1,60.3,19.8,62,19.8,64.9"/>
	<path class="st0" d="M31.9,65v3c0,1.8-1.2,3.7-4.7,3.7c-3.5,0-4.8-2-4.8-3.8c0-0.8,0.3-3.5,4.8-3.5c0.7,0,1.4,0.1,2,0.2
		c0-1.2-0.6-2.1-2.4-2.1c-1.3,0-2.4,0.2-3.3,0.6v-2.2c0.9-0.4,2.1-0.6,3.4-0.6C30.2,60.3,31.9,62,31.9,65 M29.3,66.3
		c-0.5-0.1-1-0.1-1.6-0.1c-1.8,0-2.5,0.5-2.5,1.4c0,1.2,0.7,1.8,2.1,1.8c1.5,0,2-0.7,2-1.7V66.3z"/>
	<rect x="35.1" y="56.2" class="st0" width="2.7" height="15.4"/>
	<path class="st0" d="M50,65v3c0,1.8-1.2,3.7-4.7,3.7c-3.5,0-4.8-2-4.8-3.8c0-0.8,0.3-3.5,4.8-3.5c0.7,0,1.4,0.1,2,0.2
		c0-1.2-0.6-2.1-2.4-2.1c-1.3,0-2.4,0.2-3.3,0.6v-2.2c0.9-0.4,2.1-0.6,3.4-0.6C48.3,60.3,50,62,50,65 M47.3,66.3
		c-0.5-0.1-1-0.1-1.6-0.1c-1.8,0-2.5,0.5-2.5,1.4c0,1.2,0.7,1.8,2.1,1.8c1.5,0,2-0.7,2-1.7V66.3z"/>
	<rect x="53.2" y="60.5" class="st0" width="2.7" height="11.1"/>
	<path class="st0" d="M80.8,65v3c0,1.8-1.2,3.7-4.7,3.7c-3.5,0-4.8-2-4.8-3.8c0-0.8,0.3-3.5,4.8-3.5c0.7,0,1.4,0.1,2,0.2
		c0-1.2-0.6-2.1-2.4-2.1c-1.3,0-2.4,0.2-3.3,0.6v-2.2c0.9-0.4,2.1-0.6,3.4-0.6C79,60.3,80.8,62,80.8,65 M78.1,66.3
		c-0.5-0.1-1-0.1-1.6-0.1c-1.8,0-2.5,0.5-2.5,1.4c0,1.2,0.7,1.8,2.1,1.8c1.5,0,2-0.7,2-1.7V66.3z"/>
	<path class="st0" d="M61.9,66.2c0-1,0.6-2.3,1.3-2.9c0.8-0.6,1.4-1,2.7-0.9c1.1,0,2,1.7,0.9,2.8c-0.6,0.7-2.8,0.8-3.1,1.2
		c-0.3,0.3-0.1,0.7,0,0.8c0.2,0.3,0.9,1.3,0.9,1.3l2.2,2.9l3.1,0l-2.5-2.8l-1.2-1.3l0.6-0.2c1.5-0.6,1.9-1.2,2.2-1.8
		c1.2-2-0.2-4.5-2.8-4.6c-3.9-0.2-4.5,1.9-4.5,1.9l0,0.4v-6.7h-2.7v15.2h2.7v-5C61.9,66.4,61.9,66.3,61.9,66.2"/>
	<path class="st0" d="M56,58.1c0,0.8-0.6,1.4-1.4,1.4c-0.8,0-1.4-0.6-1.4-1.4c0-0.8,0.6-1.4,1.4-1.4C55.3,56.7,56,57.3,56,58.1"/>
	<path class="st0" d="M56.7,28.4c0,8.2-6.6,14.8-14.8,14.8c-8.2,0-14.8-6.6-14.8-14.8c0-8.2,6.6-14.8,14.8-14.8
		C50.1,13.6,56.7,20.2,56.7,28.4"/>
	<path class="st1" d="M40.3,30.1c0-0.7,0.5-1.6,1-2c0.5-0.4,1-0.7,1.9-0.7c0.8,0,1.4,1.2,0.7,2c-0.4,0.5-2,0.6-2.2,0.9
		c-0.2,0.2-0.1,0.5,0,0.6c0.1,0.2,0.7,0.9,0.7,0.9l1.6,2.1l2.2,0l-1.8-2l-0.8-1l0.4-0.2c1-0.4,1.3-0.8,1.6-1.3
		c0.9-1.5-0.2-3.2-2-3.3c-2.8-0.2-3.2,1.4-3.2,1.4l0,0.3V23h-1.9v10.9h1.9v-3.6C40.2,30.3,40.3,30.2,40.3,30.1"/>
</g>
<text transform="matrix(1 0 0 1 30.337 83.5605)"><tspan x="0" y="0" class="st1 st2 st3">V</tspan><tspan x="3.6" y="0" class="st1 st2 st3">I</tspan><tspan x="5.1" y="0" class="st1 st2 st3">A</tspan><tspan x="8.8" y="0" class="st1 st2 st3">T</tspan><tspan x="12.1" y="0" class="st1 st2 st3">G</tspan><tspan x="16.6" y="0" class="st1 st2 st3">E</tspan><tspan x="20.1" y="0" class="st1 st2 st3">S</tspan></text>
</svg>
